<svg width="58" height="58" viewBox="0 0 58 58" fill="none" xmlns="http://www.w3.org/2000/svg">
<g clip-path="url(#clip0)">
<path d="M56.8673 45.4209C47.4066 45.4209 38.121 49.3017 31.3914 56.068C30.9498 56.5118 30.952 57.2291 31.3954 57.6699C31.6166 57.8898 31.9052 57.9995 32.1946 57.9995C32.4853 57.9995 32.776 57.8885 32.9977 57.6659C39.3052 51.3239 48.0053 47.6865 56.8673 47.6865C57.493 47.6865 58.0001 47.1794 58.0001 46.5537C58.0001 45.9285 57.493 45.4209 56.8673 45.4209Z" fill="#72BAB7"/>
<path d="M33.2445 44.3717C32.8941 43.8531 32.19 43.7168 31.6719 44.0673C26.8278 47.3392 22.7368 51.4332 19.5118 56.2353C19.1631 56.7548 19.3012 57.4588 19.8207 57.8075C20.015 57.9376 20.234 58 20.4513 58C20.8159 58 21.1743 57.8239 21.3929 57.4987C24.4542 52.9395 28.3389 49.0521 32.9401 45.9444C33.4583 45.5944 33.5946 44.8904 33.2445 44.3717Z" fill="#72BAB7"/>
<path d="M56.8672 36.3018C51.8028 36.3018 46.7901 37.1669 41.9685 38.8732C41.3787 39.0816 41.0698 39.729 41.2787 40.3188C41.4428 40.7839 41.88 41.0742 42.3464 41.0742C42.4717 41.0742 42.5991 41.0529 42.7243 41.0087C47.3025 39.3887 52.0607 38.5674 56.8672 38.5674C57.4929 38.5674 58 38.0603 58 37.4346C58 36.8089 57.4929 36.3018 56.8672 36.3018Z" fill="#72BAB7"/>
<path d="M16.2306 50.2274C23.6833 40.5104 34.4716 33.7635 46.3758 31.2351C46.3781 31.2346 46.3803 31.2342 46.382 31.2337C49.803 30.5076 53.3152 30.1292 56.8672 30.1292C57.4924 30.1292 58 29.6217 58 28.9964C58 28.3707 57.4924 27.8636 56.8672 27.8636C53.6462 27.8636 50.4376 28.1583 47.2834 28.7349V26.2896C51.3779 22.8235 53.6254 18.2816 53.6254 13.445C53.6254 8.4443 51.223 3.75862 46.8604 0.250881C46.4458 -0.082325 45.855 -0.082325 45.4404 0.250881C41.0782 3.75862 38.6754 8.4443 38.6754 13.445C38.6754 18.2816 40.9233 22.8235 45.0173 26.2896V29.1982C42.865 29.6881 40.7436 30.3124 38.6665 31.0643V24.4316C38.6665 24.12 38.5408 23.8382 38.3373 23.6333V23.6328L31.9935 17.2515C31.7807 17.0377 31.4917 16.9174 31.19 16.9174H18.2383C17.9369 16.9174 17.6475 17.0377 17.4351 17.2515L11.0914 23.6328V23.6333C10.8878 23.8382 10.7617 24.12 10.7617 24.432V28.7579C9.97229 28.6132 9.17932 28.4858 8.38281 28.3769V24.3386C11.479 21.6752 13.1778 18.2015 13.1778 14.5009C13.1778 10.6347 11.3246 7.01589 7.95978 4.30998C7.54515 3.97677 6.95485 3.97677 6.54022 4.30998C3.17542 7.01545 1.3222 10.6347 1.3222 14.5009C1.3222 18.2011 3.02098 21.6748 6.11719 24.3382V28.1163C4.46532 27.9619 2.80238 27.8822 1.13281 27.8822C0.507111 27.8822 0 28.3893 0 29.015C0 29.6407 0.507111 30.1478 1.13281 30.1478C10.1909 30.1478 19.0507 32.5444 26.8614 37.0912C24.99 38.3629 23.2027 39.752 21.5106 41.2472C15.1823 38.0231 8.15094 36.3217 1.13281 36.3217C0.507553 36.3217 0 36.8288 0 37.4545C0 38.0802 0.507553 38.5873 1.13281 38.5873C7.5186 38.5873 13.9172 40.0723 19.7304 42.8924C18.0082 44.5584 16.3983 46.3409 14.9129 48.225C10.5064 46.3771 5.87514 45.4408 1.13281 45.4408C0.507553 45.4408 0 45.9479 0 46.5736C0 47.1993 0.507553 47.7064 1.13281 47.7064C5.38086 47.7064 9.53421 48.5118 13.5017 50.0977C12.7189 51.1854 11.9751 52.3027 11.2755 53.4497L9.54926 56.2777C9.22313 56.8114 9.39217 57.5088 9.92583 57.8345C10.1104 57.9473 10.3139 58.0009 10.5152 58.0009C10.8967 58.0009 11.2697 57.8075 11.483 57.4579L13.2092 54.6299C14.1093 53.155 15.0819 51.7359 16.1187 50.3734C16.1594 50.3283 16.1974 50.28 16.2306 50.2274ZM40.9414 13.445C40.9414 9.4187 42.7836 5.60475 46.1506 2.61607C49.5176 5.60475 51.3598 9.4187 51.3598 13.445C51.3598 16.9931 49.9278 20.3769 47.2834 23.1757V14.5009C47.2834 13.8752 46.7763 13.3681 46.1506 13.3681C45.5249 13.3681 45.0178 13.8752 45.0178 14.5009V23.1757C42.3729 20.3769 40.9414 16.9931 40.9414 13.445ZM3.58783 14.5009C3.58783 11.6113 4.88127 8.86689 7.25 6.68623C9.61873 8.86645 10.9122 11.6113 10.9122 14.5009C10.9122 16.8891 10.0276 19.1786 8.38281 21.1327V13.5946C8.38281 12.9689 7.8757 12.4618 7.25 12.4618C6.62474 12.4618 6.11719 12.9689 6.11719 13.5946V21.1327C4.4724 19.1786 3.58783 16.8891 3.58783 14.5009ZM34.8105 23.2987H25.0533L20.9619 19.183H30.7191L34.8105 23.2987ZM18.2383 19.6569L21.8589 23.2987H14.6181L18.2383 19.6569ZM13.0273 25.5644H23.4492V32.7683C22.924 32.5267 22.3956 32.2931 21.8633 32.0687V28.2641C21.8633 27.6388 21.3562 27.1313 20.7305 27.1313H15.7461C15.1208 27.1313 14.6133 27.6388 14.6133 28.2641V29.6111C14.0867 29.4739 13.5583 29.3438 13.0273 29.2226V25.5644ZM19.5977 31.1749C18.6994 30.8439 17.7931 30.5368 16.8789 30.2549V29.3969H19.5977V31.1749ZM25.7148 33.8768V25.5644H36.4013V31.9435C34.461 32.7476 32.5648 33.6653 30.7267 34.6972C30.139 35.0269 29.5584 35.3694 28.9845 35.7207C27.9137 35.0667 26.8233 34.4516 25.7148 33.8768Z" fill="#72BAB7"/>
<path d="M46.1504 11.3281C46.4482 11.3281 46.7407 11.2069 46.9513 10.9958C47.162 10.7852 47.2832 10.4931 47.2832 10.1953C47.2832 9.89706 47.1624 9.60501 46.9513 9.39438C46.7407 9.1833 46.4482 9.0625 46.1504 9.0625C45.8526 9.0625 45.5601 9.1833 45.3499 9.39438C45.1388 9.60501 45.0176 9.89706 45.0176 10.1953C45.0176 10.4931 45.1388 10.7852 45.3499 10.9958C45.5601 11.2064 45.8526 11.3281 46.1504 11.3281Z" fill="#72BAB7"/>
<path d="M36.3177 41.3782C36.1075 41.5888 35.9858 41.8808 35.9858 42.1786C35.9858 42.4778 36.1071 42.769 36.3177 42.9796C36.5288 43.1907 36.8208 43.3115 37.1187 43.3115C37.4169 43.3115 37.709 43.1907 37.9196 42.9796C38.1302 42.769 38.2515 42.4778 38.2515 42.1786C38.2515 41.8808 38.1302 41.5888 37.9196 41.3782C37.709 41.1671 37.4169 41.0458 37.1187 41.0458C36.8208 41.0458 36.5288 41.1671 36.3177 41.3782Z" fill="#72BAB7"/>
</g>
<defs>
<clipPath id="clip0">
<rect width="58" height="58" fill="white"/>
</clipPath>
</defs>
</svg>
