<svg width="58" height="58" viewBox="0 0 58 58" fill="none" xmlns="http://www.w3.org/2000/svg">
<g clip-path="url(#clip0)">
<path d="M58 32.2366C58 24.8123 51.96 18.7723 44.5357 18.7723C41.9037 18.7723 39.3287 19.552 37.1447 20.9855C36.5777 18.5021 35.8238 16.1096 34.9134 13.9688C32.4672 8.21693 29.2636 5.04907 25.8929 5.04907C22.5184 5.04907 19.3148 8.20386 16.8727 13.9323C16.0124 15.9502 15.2917 18.1968 14.7364 20.5362L11.3563 8.14262C11.2334 7.69209 10.8241 7.37943 10.3571 7.37943C9.89016 7.37943 9.48079 7.69209 9.35793 8.14275L0.0365021 42.3213C-0.0484264 42.6327 0.0166941 42.9659 0.212574 43.2224C0.408582 43.479 0.712953 43.6294 1.03571 43.6294H9.32142V51.9151C9.32142 52.4871 9.78516 52.9509 10.3571 52.9509C10.9291 52.9509 11.3928 52.4871 11.3928 51.9151V43.6294H19.6786C20.0013 43.6294 20.3057 43.479 20.5016 43.2223C20.6611 43.0134 20.7321 42.7539 20.7079 42.4965C21.9894 43.0862 23.3873 43.4642 24.8571 43.5859V51.9151C24.8571 52.4871 25.3209 52.9509 25.8929 52.9509C26.4648 52.9509 26.9286 52.4871 26.9286 51.9151V43.5861C29.6173 43.3635 32.0662 42.2827 33.9999 40.6187C36.3321 43.548 39.7719 45.3727 43.5 45.6596V51.9151C43.5 52.4871 43.9637 52.9509 44.5357 52.9509C45.1077 52.9509 45.5714 52.4871 45.5714 51.9151V45.6614C52.5136 45.1308 58 39.3123 58 32.2366ZM18.3226 41.558H11.3928V39.9156L13.2257 38.0828C13.6301 37.6782 13.6301 37.0226 13.2257 36.618C12.8211 36.2137 12.1655 36.2137 11.7609 36.618L11.3928 36.986V30.1651C11.3928 29.5932 10.9291 29.1294 10.3571 29.1294C9.78516 29.1294 9.32142 29.5932 9.32142 30.1651V34.9147L7.98237 33.5756C7.5778 33.1713 6.92219 33.1713 6.51761 33.5756C6.11317 33.9802 6.11317 34.6358 6.51761 35.0404L9.32142 37.8442V39.4858C9.32142 39.4862 9.32142 39.4867 9.32142 39.4871V41.558H2.39172L10.3571 12.3514L13.8663 25.2179C13.5932 27.2302 13.4481 29.2456 13.4481 31.1845C13.4481 35.1213 15.286 38.6364 18.1482 40.9184L18.3226 41.558ZM26.9286 39.9156L30.7681 36.0761C31.1725 35.6715 31.1725 35.0159 30.7681 34.6113C30.3635 34.207 29.7079 34.207 29.3033 34.6113L26.9286 36.986V32.6656L29.7324 29.8618C30.1368 29.4572 30.1368 28.8016 29.7324 28.397C29.3278 27.9927 28.6722 27.9927 28.2676 28.397L26.9286 29.736V27.058C26.9286 26.486 26.4648 26.0223 25.8929 26.0223C25.3209 26.0223 24.8571 26.486 24.8571 27.058V32.2359C24.8571 32.2363 24.8571 32.2368 24.8571 32.2372V34.9145L22.4824 32.5398C22.0778 32.1355 21.4222 32.1355 21.0176 32.5398C20.6132 32.9444 20.6132 33.6 21.0176 34.0045L24.8571 37.8442V39.4858C24.8571 39.4862 24.8571 39.4867 24.8571 39.4871V41.506C19.6219 40.9845 15.5195 36.5547 15.5195 31.1845C15.5195 25.6766 16.7377 19.5307 18.7781 14.7447C20.8439 9.89945 23.437 7.1205 25.8929 7.1205C28.3441 7.1205 30.9372 9.91214 33.0072 14.7795C35.0479 19.5779 36.2662 25.7108 36.2662 31.1847C36.2662 36.555 32.1638 40.9847 26.9286 41.5061V39.9156ZM45.5714 43.5819V41.9872L49.4109 38.1477C49.8154 37.7431 49.8154 37.0875 49.4109 36.6829C49.0064 36.2786 48.3508 36.2786 47.9462 36.6829L45.5714 39.0574V32.2366C45.5714 31.6646 45.1077 31.2009 44.5357 31.2009C43.9637 31.2009 43.5 31.6646 43.5 32.2366V36.9861L41.1252 34.6113C40.7207 34.207 40.065 34.207 39.6605 34.6113C39.256 35.0159 39.256 35.6715 39.6605 36.0761L43.5 39.9156V41.5572C43.5 41.5576 43.5 41.5581 43.5 41.5585V43.582C40.3232 43.2928 37.4069 41.6819 35.4647 39.1287C37.2577 36.972 38.3376 34.2021 38.3376 31.1845C38.3376 28.6015 38.0774 25.8773 37.5967 23.2023C39.5781 21.6798 42.0264 20.8437 44.5357 20.8437C50.8177 20.8437 55.9286 25.9546 55.9286 32.2366C55.9286 38.1694 51.3699 43.0568 45.5714 43.5819Z" fill="#72BAB7"/>
</g>
<defs>
<clipPath id="clip0">
<rect width="58" height="58" fill="white"/>
</clipPath>
</defs>
</svg>
