<svg width="58" height="58" viewBox="0 0 58 58" fill="none" xmlns="http://www.w3.org/2000/svg">
<g clip-path="url(#clip0)">
<path d="M51.2031 13.5938C47.4551 13.5938 44.4062 10.5449 44.4062 6.79688C44.4062 3.04886 47.4551 0 51.2031 0C54.9511 0 58 3.04886 58 6.79688C58 10.5449 54.9511 13.5938 51.2031 13.5938ZM51.2031 2.26562C48.7047 2.26562 46.6719 4.29849 46.6719 6.79688C46.6719 9.29526 48.7047 11.3281 51.2031 11.3281C53.7015 11.3281 55.7344 9.29526 55.7344 6.79688C55.7344 4.29849 53.7015 2.26562 51.2031 2.26562Z" fill="#72BAB7"/>
<path d="M30.3337 12.5052H1.13281C0.507111 12.5052 0 11.9976 0 11.3724C0 7.45665 3.24489 4.27858 7.18407 4.39894C8.84435 1.66692 11.7799 0 15.0182 0C17.6714 0 20.2008 1.16423 21.9345 3.14975C22.5403 2.9993 23.1634 2.92363 23.7957 2.92363C28.0486 2.92363 31.5086 6.38358 31.5086 10.636C31.5086 10.9162 31.4917 11.206 31.4594 11.4976C31.3953 12.0715 30.9107 12.5052 30.3337 12.5052ZM2.40324 10.2396H29.2283C29.0243 7.42036 26.6658 5.18925 23.7957 5.18925C23.1501 5.18925 22.5186 5.30077 21.919 5.52069C21.4438 5.69548 20.9097 5.53264 20.6123 5.12288C19.314 3.33383 17.2227 2.26562 15.0182 2.26562C12.3817 2.26562 10.0121 3.73341 8.83328 6.09595C8.61513 6.53314 8.14076 6.78094 7.65755 6.71147C7.42921 6.67828 7.2 6.66147 6.97653 6.66147C4.76932 6.66147 2.91168 8.18723 2.40324 10.2396Z" fill="#72BAB7"/>
<path d="M50.692 53.0838C50.6186 53.0838 50.5451 53.0758 50.4712 53.0608C50.3987 53.0475 50.3274 53.0258 50.2597 52.9975C50.1916 52.9692 50.1256 52.9342 50.0646 52.8935C50.0022 52.8515 49.9446 52.8037 49.8924 52.7519C49.8393 52.6997 49.7929 52.6417 49.7508 52.5793C49.7101 52.5183 49.6752 52.4528 49.6468 52.3846C49.6185 52.3156 49.5968 52.2443 49.5822 52.1727C49.5672 52.0992 49.5605 52.0244 49.5605 51.951C49.5605 51.8771 49.5672 51.8023 49.5822 51.7297C49.5968 51.6576 49.6185 51.5859 49.6468 51.5182C49.6752 51.4492 49.7101 51.3832 49.7508 51.3222C49.7915 51.2598 49.8393 51.2022 49.8915 51.15C49.9433 51.0978 50.0022 51.05 50.0637 51.0093C50.1256 50.9686 50.1916 50.9336 50.2597 50.9053C50.3274 50.877 50.3987 50.8553 50.4712 50.8407C50.6172 50.8111 50.7681 50.8111 50.9142 50.8407C50.9867 50.8553 51.058 50.877 51.1261 50.9053C51.1943 50.9336 51.2598 50.9686 51.3222 51.0093C51.3832 51.05 51.4421 51.0978 51.4943 51.15C51.5465 51.2022 51.5939 51.2598 51.6346 51.3222C51.6757 51.3832 51.7107 51.4492 51.739 51.5182C51.7673 51.5863 51.789 51.6576 51.8036 51.7297C51.8182 51.8023 51.8262 51.8771 51.8262 51.951C51.8262 52.0244 51.8182 52.0992 51.8036 52.1727C51.789 52.2443 51.7673 52.3156 51.739 52.3846C51.7107 52.4528 51.6757 52.5183 51.6346 52.5793C51.5939 52.6417 51.5465 52.6997 51.4943 52.7519C51.4421 52.8037 51.3832 52.8515 51.3222 52.8935C51.2598 52.9342 51.1943 52.9692 51.1261 52.9975C51.058 53.0258 50.9867 53.0475 50.9142 53.0608C50.8407 53.0758 50.7668 53.0838 50.692 53.0838Z" fill="#72BAB7"/>
<path d="M56.8672 45.9023H54.7684V33.2852L55.1078 33.5343C55.306 33.6799 55.5414 33.7542 55.7786 33.7542C55.953 33.7542 56.1286 33.714 56.2902 33.6321C56.6712 33.4392 56.9114 33.0485 56.9114 32.6214V26.4184C56.9114 26.0578 56.7397 25.7188 56.449 25.5051L40.9574 14.1247C40.5582 13.8318 40.0148 13.8318 39.6157 14.1247L32.8091 19.125L29.6708 16.8196C29.2717 16.5262 28.7283 16.5262 28.3292 16.8196L25.1905 19.125L18.3839 14.1247C17.9852 13.8318 17.4418 13.8318 17.0426 14.1247L1.55054 25.5055C1.26025 25.7188 1.08856 26.0578 1.08856 26.4184V32.6214C1.08856 33.0485 1.32884 33.4396 1.70984 33.6321C1.87135 33.714 2.04659 33.7542 2.22137 33.7542C2.45811 33.7542 2.69397 33.6803 2.89177 33.5348L3.23161 33.2852V45.9023H1.13281C0.507111 45.9023 0 46.4094 0 47.0351V56.8672C0 57.4929 0.507111 58 1.13281 58H56.8672C57.4929 58 58 57.4929 58 56.8672V47.0351C58 46.4094 57.4929 45.9023 56.8672 45.9023ZM52.5028 31.6209L52.5032 45.9023H43.4823L43.4819 35.9796L43.8217 36.2292C43.8275 36.2336 43.8332 36.2376 43.839 36.242C43.8412 36.2433 43.8429 36.2442 43.8447 36.2455C43.8487 36.2486 43.8527 36.2513 43.8571 36.254C43.8593 36.2557 43.8615 36.2571 43.8637 36.2588C43.8673 36.261 43.8708 36.2637 43.8748 36.2659C43.877 36.2677 43.8797 36.2694 43.8823 36.2708C43.8859 36.2734 43.8898 36.2756 43.8938 36.2783C43.8956 36.2796 43.8978 36.2809 43.9 36.2818C43.904 36.2845 43.9084 36.2871 43.9129 36.2898C43.9146 36.2907 43.9168 36.292 43.9186 36.2933C43.9239 36.296 43.9288 36.2991 43.9341 36.3022C43.935 36.3026 43.9363 36.3035 43.9372 36.304C43.95 36.311 43.9629 36.3181 43.9761 36.3248C43.977 36.3252 43.9775 36.3252 43.9783 36.3256C43.9837 36.3287 43.9894 36.3314 43.9952 36.334C43.9965 36.3349 43.9983 36.3358 43.9996 36.3363C44.0045 36.3389 44.0098 36.3411 44.0151 36.3433C44.0164 36.3442 44.0177 36.3447 44.0191 36.3456C44.0248 36.3478 44.0301 36.3504 44.0354 36.3531C44.0368 36.3535 44.0376 36.354 44.0385 36.3544C44.2987 36.4681 44.5939 36.4801 44.8638 36.3863C44.8647 36.3858 44.8647 36.3858 44.8651 36.3858C44.8846 36.3787 44.9036 36.3717 44.9227 36.3637C44.9244 36.3628 44.9262 36.3624 44.928 36.3615C44.9315 36.3602 44.935 36.3588 44.9386 36.3571C44.9408 36.3562 44.943 36.3553 44.9452 36.3544C44.9483 36.3531 44.951 36.3517 44.9541 36.3504C44.9572 36.3491 44.9598 36.3478 44.9629 36.3464C44.9656 36.3456 44.9682 36.3442 44.9709 36.3429C44.974 36.3416 44.9775 36.3398 44.9811 36.338C44.9833 36.3371 44.985 36.3363 44.9873 36.3349C44.993 36.3323 44.9983 36.3296 45.0036 36.327C45.3846 36.134 45.6249 35.7433 45.6249 35.3163V29.1128C45.6249 28.7522 45.4532 28.4132 45.1629 28.1999L38.9449 23.6324L40.2865 22.6469L52.5028 31.6209ZM31.5683 50.8181H26.4317V44.0606H31.5683V50.8181ZM32.7011 41.795H25.2989C24.6736 41.795 24.1661 42.3026 24.1661 42.9278V50.8181H16.7838V34.3153L29 25.3413L41.2162 34.3153L41.2167 50.8181H33.8339V42.9278C33.8339 42.3026 33.3264 41.795 32.7011 41.795ZM40.2865 16.4435L54.6458 26.9919V30.3837L40.9574 20.3278C40.5896 20.0578 40.0989 20.0366 39.7122 20.2645C39.679 20.284 39.6471 20.3052 39.6161 20.3278L37.0315 22.2266L34.7229 20.5304L40.2865 16.4435ZM29 19.1379L43.3593 29.6863V33.0781L43.0199 32.8285L29.6708 23.0226C29.6394 22.9996 29.6076 22.9784 29.5748 22.9593C29.2204 22.7505 28.7796 22.7505 28.4256 22.9593C28.3924 22.9788 28.3606 22.9996 28.3292 23.0226L14.9801 32.8285L14.6407 33.0781V29.6863L29 19.1379ZM3.35419 26.9919L17.7135 16.4435L23.2771 20.5304L20.9685 22.2266L18.3839 20.3282C17.9852 20.0348 17.4418 20.0348 17.0426 20.3282L3.35419 30.3837V26.9919ZM5.49724 31.6209L17.7135 22.6465L19.0551 23.6324L12.8371 28.1999C12.8326 28.203 12.8282 28.2066 12.8238 28.2097C12.5906 28.3867 12.4366 28.6446 12.3901 28.9292C12.3884 28.9402 12.3866 28.9513 12.3853 28.9624C12.3839 28.9734 12.3826 28.9845 12.3813 28.9955C12.3773 29.034 12.3751 29.0734 12.3751 29.1128V35.3163C12.3751 35.7433 12.6154 36.134 12.9964 36.327C13.0021 36.3296 13.0083 36.3327 13.0141 36.3358C13.1428 36.3978 13.2791 36.4341 13.4172 36.4451C13.684 36.4668 13.9553 36.3933 14.1787 36.2292L14.5181 35.9796V45.9023H5.49768L5.49724 31.6209ZM14.5181 48.168V50.8181H2.26562V48.168H14.5181ZM55.7344 55.7343H2.26562V53.0837H46.1055C46.7312 53.0837 47.2383 52.5766 47.2383 51.9509C47.2383 51.3257 46.7312 50.8181 46.1055 50.8181H43.4823V48.168H55.7344V55.7343Z" fill="#72BAB7"/>
<path d="M29.0002 39.4183C26.2974 39.4183 24.0981 37.2195 24.0981 34.5162C24.0981 31.8134 26.2974 29.6146 29.0002 29.6146C31.703 29.6146 33.9023 31.8134 33.9023 34.5162C33.9023 37.2195 31.703 39.4183 29.0002 39.4183ZM29.0002 31.8798C27.5466 31.8798 26.3638 33.0626 26.3638 34.5162C26.3638 35.9699 27.5466 37.1527 29.0002 37.1527C30.4538 37.1527 31.6367 35.9699 31.6367 34.5162C31.6367 33.0626 30.4538 31.8798 29.0002 31.8798Z" fill="#72BAB7"/>
</g>
<defs>
<clipPath id="clip0">
<rect width="58" height="58" fill="white"/>
</clipPath>
</defs>
</svg>
