<svg width="59" height="39" viewBox="0 0 59 39" fill="none" xmlns="http://www.w3.org/2000/svg">
<path d="M38.4757 38.7092H0V0H38.4757V13.2449H36.6921V1.79443H1.7836V36.9146H36.6921V25.3788H38.4757V38.7092Z" fill="white"/>
<path d="M7.86108 15.3789H9.64802V18.8062L12.2058 15.3789H14.3502L11.4128 19.0085L14.5848 23.2448H12.3176L9.64802 19.5029V23.2448H7.86108V15.3789Z" fill="white"/>
<path d="M19.2456 21.6231C20.687 21.6231 21.4346 20.5984 21.4346 19.3118C21.4346 17.9163 20.4702 17.0005 19.2456 17.0005C17.9885 17.0005 17.0566 17.9163 17.0566 19.3118C17.0566 20.6202 18.0319 21.6231 19.2456 21.6231ZM19.2456 15.3652C21.5537 15.3652 23.2768 16.8806 23.2768 19.3118C23.2768 21.6231 21.5537 23.2585 19.2456 23.2585C16.9375 23.2585 15.2144 21.743 15.2144 19.3118C15.2144 17.0987 16.829 15.3652 19.2456 15.3652Z" fill="white"/>
<path d="M30.7935 23.2448L27.0856 18.5252V23.2448H25.4102V15.3811H26.8397L30.548 20.121L30.5455 15.3814H32.2208L32.2232 23.2448H30.7935Z" fill="white"/>
<path d="M34.374 15.3789H40.852V17.0645H38.5065V23.2448H36.7194V17.0645H34.374V15.3789Z" fill="white"/>
<path d="M49.5222 19.8612C49.5222 22.2661 48.0033 23.2437 46.328 23.2437C44.3176 23.2437 42.9214 22.0861 42.9214 19.7827V15.3821H44.7085V19.4006C44.7085 20.6254 45.0771 21.5581 46.328 21.5581C47.4114 21.5581 47.7353 20.7603 47.7353 19.5017V15.3821H49.5222V19.8612Z" fill="white"/>
<path d="M53.4568 17.0902V18.8318H54.1044C54.7859 18.8318 55.3219 18.5847 55.3219 17.9217C55.3219 17.4835 55.0998 17.0884 54.2397 17.0884C53.9717 17.0884 53.8254 17.079 53.4568 17.0902ZM51.6697 23.2437V15.3821C52.1052 15.3821 54.1044 15.3821 54.3279 15.3821C56.4611 15.3821 57.2206 16.4498 57.2206 17.8993C57.2206 19.3601 56.3272 19.9556 55.9027 20.1691L58.1626 23.2437H55.9957L54.1156 20.5174H53.4568V23.2437H51.6697Z" fill="white"/>
</svg>
