<svg width="271" height="44" viewBox="0 0 271 44" fill="none" xmlns="http://www.w3.org/2000/svg">
<path d="M41.3504 33.4492C39.6866 31.2992 36.9137 29.7067 32.9523 28.7511C32.8731 28.7511 32.8731 28.7511 32.8731 28.8307C31.2885 32.2548 28.1987 34.7233 24.3958 35.6788C22.5736 36.1566 20.8306 36.2362 19.3253 35.9177C17.3446 35.5196 15.6016 34.4844 14.017 32.9714C12.3533 31.3789 11.2441 29.5474 10.6103 27.4771C10.0557 25.6456 9.97645 23.6549 10.2141 21.4253C10.7687 16.7272 12.7494 13.3828 16.0769 11.3921C18.1368 10.1976 20.4344 9.5606 23.0489 9.5606C24.5542 9.64023 25.9011 9.87912 27.0103 10.2773C27.8818 10.5958 29.0702 11.2328 30.5755 12.268C30.6547 12.268 30.6547 12.268 30.734 12.1883C33.6654 9.87912 35.5668 7.17174 36.4383 3.90697C36.4383 3.82734 36.4383 3.82734 36.3591 3.74771C32.3185 1.67736 28.991 0.482931 26.2972 0.164416C22.3359 -0.313355 18.3745 0.244048 14.4132 1.91625C11.3233 3.19031 8.55036 5.1014 6.09433 7.72914C3.63828 10.2773 1.97452 13.3031 0.944564 16.8068C-1.03611 23.416 0.0730661 31.3789 4.50978 36.7936C8.39191 41.4917 14.4924 43.8806 22.9697 43.9602C26.6934 44.0398 29.8625 43.4824 32.6354 42.288C35.7253 40.9343 38.1813 38.864 40.0035 36.077C40.4789 35.3603 40.9542 34.4844 41.3504 33.6085C41.4296 33.5288 41.4296 33.5288 41.3504 33.4492Z" fill="white"/>
<path d="M74.9105 31.8566C74.6728 27.4771 74.6728 22.9382 74.752 18.2401C74.8313 15.3735 74.8313 12.4272 74.8313 9.40134C74.8313 9.32172 74.752 9.32172 74.6728 9.32172C71.8998 9.32172 69.1269 9.95874 66.2747 11.1532C66.1955 11.1532 66.1955 11.2328 66.1955 11.3124C66.1955 17.205 66.1955 20.9475 66.1163 22.6197C66.037 25.566 65.7994 27.6363 65.4032 28.8307C64.8486 30.7418 63.581 32.2548 61.7588 33.2899C59.9366 34.3251 58.2728 34.7233 56.7675 34.3251C54.7868 33.6881 53.9153 32.1751 53.6776 29.9455C53.4399 28.1141 53.4399 27.7956 53.4399 26.1234C53.3607 22.3808 53.3607 19.6734 53.4399 18.1605C53.4399 16.8864 53.5192 14.6568 53.5192 13.4624C53.3607 12.4272 53.3607 10.5161 53.3607 9.40134C53.3607 9.32172 53.3607 9.32172 53.2815 9.32172C50.3501 9.32172 47.4187 9.95874 44.5665 11.1532C44.4873 11.1532 44.4873 11.2328 44.4873 11.3124C44.4873 12.0291 44.4081 15.2939 44.4081 16.6476C44.4873 17.5235 44.4873 18.6383 44.4081 19.8327C44.3288 23.8938 44.2496 26.203 44.3288 26.7604C44.5665 30.2641 44.6457 31.8566 45.2795 35.0418C45.9926 38.2269 47.3395 40.6158 49.5578 42.2084C51.3008 43.562 53.5984 44.1194 56.3713 43.8806C58.5897 43.6417 60.5704 43.0046 62.3926 41.8102C63.8187 40.775 65.0863 39.4214 66.1955 37.5899C66.1163 38.1473 66.1163 38.6251 66.1163 39.0232C66.1163 39.9788 66.1163 41.3324 66.1955 43.0046C66.1955 43.0843 66.2747 43.1639 66.354 43.1639H74.9897C75.0689 43.1639 75.1482 43.0843 75.1482 43.0046C75.1482 38.2269 75.0689 34.4844 74.9105 31.8566Z" fill="white"/>
<path d="M107.218 22.3808C107.139 21.6642 107.139 21.0271 107.139 20.3901C107.139 19.8327 107.139 19.1957 107.218 18.5586C107.297 15.9309 107.297 14.0994 107.297 12.905C107.297 11.7902 107.297 10.6754 107.218 9.48097C107.218 9.40134 107.218 9.40134 107.139 9.40134C104.524 9.40134 102.623 9.5606 101.276 9.79949C100.087 10.0384 99.1366 10.4365 98.4236 11.0735C98.2651 11.1532 98.1859 11.2328 98.1859 11.4717C98.1067 11.4717 98.1067 11.7106 98.1067 12.1883C98.1067 12.5069 98.1067 12.7457 98.1859 12.905C98.2651 13.3031 98.2651 13.8605 98.2651 14.7365C98.3444 15.5328 98.3444 16.1698 98.3444 16.6476C98.3444 17.205 98.3444 18.2401 98.2651 19.6734V22.0623H97.3144C93.1946 22.2216 89.8671 22.2216 87.411 22.1419C87.3318 19.4346 87.3318 17.3642 87.411 15.8513C87.411 15.2142 87.411 14.1791 87.3318 12.6661C87.2526 11.1532 87.2526 10.0384 87.3318 9.40134C87.3318 9.32172 87.2526 9.32172 87.1733 9.32172C85.5096 9.32172 83.7666 9.5606 81.8651 9.95874C80.1221 10.3569 78.8545 10.755 78.0622 11.1532V11.2328L77.983 11.3124C78.0622 12.1087 78.1415 14.0198 78.2207 17.1253C78.3791 20.2308 78.4584 22.5401 78.4584 24.2123C78.3791 26.5215 78.3791 28.7511 78.4584 30.9011C78.6168 33.927 78.6168 36.1566 78.5376 37.6695C78.4584 39.4214 78.3791 41.1732 78.1415 43.0046C78.1415 43.0843 78.2207 43.1639 78.2999 43.1639H87.2526C87.3318 43.1639 87.3318 43.0843 87.411 43.0046C87.4903 42.4472 87.4903 41.3324 87.411 39.6602C87.3318 37.988 87.2526 36.7936 87.2526 36.2362C87.3318 35.5196 87.3318 34.1659 87.411 32.2548C87.4903 31.6974 87.4903 31.14 87.4903 30.5826C88.8371 30.5826 89.9463 30.5826 90.9762 30.6622C91.4516 30.6622 93.9076 30.6622 98.2651 30.7418V30.9011C98.4236 33.927 98.4236 36.1566 98.3444 37.6695C98.2651 39.4214 98.1859 41.1732 97.9482 43.0046C97.9482 43.0843 98.0275 43.1639 98.1067 43.1639H107.059C107.139 43.1639 107.139 43.0843 107.218 43.0046C107.297 42.4472 107.218 41.3324 107.139 39.6602V39.4214L107.218 37.6695C107.297 36.9529 107.297 35.8381 107.218 34.2455V32.2548C107.297 30.3437 107.376 28.8307 107.376 27.7956C107.376 26.9197 107.297 25.1678 107.218 22.3808Z" fill="white"/>
<path d="M121.18 19.6734C122.21 19.2753 123.398 18.9568 124.745 18.7179C126.409 18.479 127.993 18.479 129.578 18.7179L129.736 23.0178C128.152 23.0975 126.092 23.5752 123.477 24.3715C122.289 24.7697 121.417 24.8493 120.863 24.6901C120.467 24.6104 120.15 24.4512 119.912 24.1326C119.595 23.8141 119.357 23.4956 119.278 23.0975C119.12 22.6993 119.041 22.3012 119.12 21.903C119.199 21.0271 119.833 20.2308 121.18 19.6734ZM138.689 22.3808C138.61 19.5938 138.61 17.3642 138.689 15.8513C138.689 15.2142 138.61 14.1791 138.53 12.6661C138.451 11.1532 138.53 10.0384 138.61 9.40134C138.61 9.32172 138.53 9.32172 138.451 9.32172C137.897 9.32172 135.916 9.40134 132.509 9.5606L130.608 9.71986L128.865 9.79949C127.676 9.87912 126.805 9.87912 126.329 9.87912C124.349 9.95874 122.606 10.118 120.942 10.5161C119.278 10.9143 117.694 11.5513 116.109 12.5865C114.445 13.6217 113.257 14.8957 112.386 16.4087C111.118 18.6383 110.722 21.1864 111.118 24.1326C111.435 26.4419 112.386 28.2733 114.049 29.5474C115 30.2641 116.03 30.9011 117.06 31.2992L115.872 33.3696L114.366 35.5992C113.574 36.714 113.019 37.5899 112.782 38.2269L111.435 40.5362C110.88 41.4917 110.484 42.288 110.246 42.925V43.0843H110.326V43.1639H119.595L119.754 43.0843C119.833 42.8454 119.991 42.5269 120.387 41.9695L121.18 40.6954L122.447 38.2269C122.527 37.988 123.002 37.2714 123.794 35.9973L125.616 32.9714C125.775 32.7325 126.013 32.3344 126.25 31.777C127.28 31.6177 128.31 31.3789 129.261 31.0603L129.736 30.9011C129.895 33.927 129.895 36.1566 129.815 37.6695C129.736 39.4214 129.657 41.1732 129.419 43.0046C129.419 43.0843 129.499 43.1639 129.578 43.1639H138.53C138.61 43.1639 138.61 43.0843 138.689 43.0046C138.768 42.4472 138.689 41.3324 138.61 39.6602C138.53 37.988 138.53 36.7936 138.53 36.2362C138.61 35.5196 138.61 34.1659 138.689 32.2548C138.768 30.3437 138.847 28.8307 138.847 27.7956C138.847 26.9197 138.768 25.1678 138.689 22.3808Z" fill="white"/>
<path d="M159.404 33.2103C158.374 33.6085 157.185 33.927 155.838 34.1659C154.254 34.4047 152.669 34.4047 151.085 34.2455C151.164 33.5288 151.164 32.8122 151.164 32.0159C151.243 31.2992 151.243 30.5826 151.243 29.8659C152.749 29.7067 154.729 29.2289 157.106 28.5122C158.295 28.1141 159.166 28.0345 159.721 28.1937C160.117 28.2733 160.434 28.4326 160.671 28.7511C160.988 29.0696 161.226 29.3881 161.305 29.7863C161.464 30.1844 161.543 30.5826 161.464 30.9807C161.384 31.8566 160.751 32.6529 159.404 33.2103ZM154.016 15.7716C154.967 15.5328 155.759 15.6124 156.393 16.0105C157.344 16.5679 157.819 17.3642 157.74 18.5586C157.74 19.4346 157.185 20.1512 155.997 20.7086C154.967 21.266 153.937 21.5845 152.907 21.8234C152.352 21.903 151.719 21.9827 151.164 21.9827C151.085 19.6734 151.006 17.842 151.085 16.4087L151.56 16.329H151.877L153.066 16.0902C153.62 15.9309 153.937 15.8513 154.016 15.7716ZM166.534 23.3364L165.346 22.5401V22.3808C166.296 17.2846 165.821 13.542 163.999 11.2328C163.048 9.95874 161.543 8.92357 159.483 8.20691C157.898 7.64951 156.155 7.64951 154.254 8.04766C154.175 8.04766 154.016 8.12728 153.779 8.20691C153.699 8.20691 152.352 8.4458 149.896 8.92357L147.203 9.40134C146.331 9.5606 145.777 9.64023 145.618 9.71986C143.875 10.118 142.608 10.5161 141.815 10.9143V10.9939L141.736 11.0735C141.815 11.8698 141.895 13.7809 141.974 16.8864C142.132 19.992 142.211 22.3012 142.211 23.9734C142.132 26.2826 142.132 28.5122 142.211 30.6622C142.37 33.6085 142.37 35.9177 142.291 37.4306C142.211 39.1825 142.132 40.9343 141.895 42.7658C141.895 42.8454 141.974 42.925 142.053 42.925H150.53C151.719 43.0046 152.986 43.0046 154.254 43.0046C156.235 42.925 157.978 42.7658 159.641 42.3676C161.305 41.9695 162.89 41.3324 164.474 40.2973C166.138 39.2621 167.326 37.988 168.198 36.4751C169.466 34.2455 169.862 31.6974 169.466 28.7511C169.149 26.4419 168.198 24.6104 166.534 23.3364Z" fill="white"/>
<path d="M203.577 31.8566C203.339 27.4771 203.339 22.9382 203.419 18.2401C203.498 15.3735 203.498 12.4272 203.498 9.40134C203.498 9.32172 203.419 9.32172 203.339 9.32172C200.567 9.32172 197.794 9.95874 194.941 11.1532C194.862 11.1532 194.862 11.2328 194.862 11.3124C194.862 17.205 194.862 20.9475 194.783 22.6197C194.704 25.566 194.466 27.6363 194.07 28.8307C193.515 30.7418 192.248 32.2548 190.425 33.2899C188.603 34.3251 186.939 34.7233 185.434 34.3251C183.453 33.6881 182.582 32.1751 182.344 29.9455C182.107 28.1141 182.107 27.7956 182.107 26.1234C182.027 22.3808 182.027 19.6734 182.107 18.1605C182.107 16.8864 182.186 14.6568 182.186 13.4624C182.027 12.4272 182.027 10.5161 182.027 9.40134C182.027 9.32172 182.027 9.32172 181.948 9.32172C179.017 9.32172 176.085 9.95874 173.233 11.1532C173.154 11.1532 173.154 11.2328 173.154 11.3124C173.154 12.0291 173.075 15.2939 173.075 16.6476C173.154 17.5235 173.154 18.6383 173.075 19.8327C172.995 23.8938 172.916 26.203 172.995 26.7604C173.233 30.2641 173.312 31.8566 173.946 35.0418C174.659 38.2269 176.006 40.6158 178.224 42.2084C179.967 43.562 182.265 44.1194 185.038 43.8806C187.256 43.6417 189.237 43.0046 191.059 41.8102C192.485 40.775 193.753 39.4214 194.862 37.5899C194.783 38.1473 194.783 38.6251 194.783 39.0232C194.783 39.9788 194.783 41.3324 194.862 43.0046C194.862 43.0843 194.941 43.1639 195.021 43.1639H203.656C203.736 43.1639 203.815 43.0843 203.815 43.0046C203.815 38.2269 203.736 34.4844 203.577 31.8566Z" fill="white"/>
<path d="M235.884 22.3808C235.805 21.6642 235.805 21.0271 235.805 20.3901C235.805 19.8327 235.805 19.1957 235.884 18.5586C235.964 15.9309 235.964 14.0994 235.964 12.905C235.964 11.7902 235.964 10.6754 235.884 9.48097C235.884 9.40134 235.884 9.40134 235.805 9.40134C233.191 9.40134 231.289 9.5606 229.942 9.79949C228.754 10.0384 227.803 10.4365 227.09 11.0735C226.932 11.1532 226.853 11.2328 226.853 11.4717C226.773 11.4717 226.773 11.7106 226.773 12.1883C226.773 12.5069 226.773 12.7457 226.853 12.905C226.932 13.3031 226.932 13.8605 226.932 14.7365C227.011 15.5328 227.011 16.1698 227.011 16.6476C227.011 17.205 227.011 18.2401 226.932 19.6734V22.0623H225.981C221.861 22.2216 218.534 22.2216 216.078 22.1419C215.998 19.4346 215.998 17.3642 216.078 15.8513C216.078 15.2142 216.078 14.1791 215.998 12.6661C215.919 11.1532 215.919 10.0384 215.998 9.40134C215.998 9.32172 215.919 9.32172 215.84 9.32172C214.176 9.32172 212.433 9.5606 210.532 9.95874C208.789 10.3569 207.521 10.755 206.729 11.1532V11.2328L206.65 11.3124C206.729 12.1087 206.808 14.0198 206.887 17.1253C207.046 20.2308 207.125 22.5401 207.125 24.2123C207.046 26.5215 207.046 28.7511 207.125 30.9011C207.283 33.927 207.283 36.1566 207.204 37.6695C207.125 39.4214 207.046 41.1732 206.808 43.0046C206.808 43.0843 206.887 43.1639 206.967 43.1639H215.919C215.998 43.1639 215.998 43.0843 216.078 43.0046C216.157 42.4472 216.157 41.3324 216.078 39.6602C215.998 37.988 215.919 36.7936 215.919 36.2362C215.998 35.5196 215.998 34.1659 216.078 32.2548C216.157 31.6974 216.157 31.14 216.157 30.5826C217.504 30.5826 218.613 30.5826 219.643 30.6622C220.118 30.6622 222.574 30.6622 226.932 30.7418V30.9011C227.09 33.927 227.09 36.1566 227.011 37.6695C226.932 39.4214 226.853 41.1732 226.615 43.0046C226.615 43.0843 226.694 43.1639 226.773 43.1639H235.726C235.805 43.1639 235.805 43.0843 235.884 43.0046C235.964 42.4472 235.884 41.3324 235.805 39.6602V39.4214L235.884 37.6695C235.964 36.9529 235.964 35.8381 235.884 34.2455V32.2548C235.964 30.3437 236.043 28.8307 236.043 27.7956C236.043 26.9197 235.964 25.1678 235.884 22.3808Z" fill="white"/>
<path d="M261.572 9.95874C258.324 8.92357 254.758 9.08283 250.956 10.5958C247.549 11.9495 244.776 14.0994 242.716 17.0457C238.517 23.1771 237.566 30.6622 241.29 37.2714C243.033 40.138 245.647 42.1287 249.133 43.1639C252.619 44.2787 255.947 44.2787 259.037 43.1639C265.375 41.0139 269.891 34.8029 270.842 27.8752C270.921 26.9993 271 26.1234 271 25.2474C270.842 19.2753 267.672 11.9495 261.572 9.95874ZM261.572 26.9993C260.542 31.2196 258.641 34.0066 255.788 35.3603C253.887 36.2362 252.223 36.3158 250.876 35.4399C249.846 34.8825 249.054 33.6881 248.579 31.9363C247.628 28.5919 248.024 25.2475 249.846 21.9827C251.669 18.7975 254.521 16.4883 257.69 17.3642C261.414 18.3994 262.443 22.8586 261.572 26.9993Z" fill="white"/>
</svg>
