<svg width="269" height="44" viewBox="0 0 269 44" fill="none" xmlns="http://www.w3.org/2000/svg">
<path d="M41.0452 33.4492C39.3937 31.2992 36.6412 29.7067 32.7091 28.7511C32.6305 28.7511 32.6305 28.7511 32.6305 28.8307C31.0576 32.2548 27.9906 34.7233 24.2157 35.6788C22.407 36.1566 20.6768 36.2362 19.1826 35.9177C17.2166 35.5196 15.4864 34.4844 13.9136 32.9714C12.2621 31.3789 11.1611 29.5474 10.532 27.4771C9.98147 25.6456 9.90283 23.6549 10.1388 21.4253C10.6893 16.7272 12.6553 13.3828 15.9583 11.3921C18.003 10.1976 20.2836 9.5606 22.8788 9.5606C24.373 9.64023 25.7099 9.87912 26.8109 10.2773C27.676 10.5958 28.8556 11.2328 30.3498 12.268C30.4285 12.268 30.4285 12.268 30.5071 12.1883C33.4169 9.87912 35.3043 7.17174 36.1694 3.90697C36.1694 3.82734 36.1694 3.82734 36.0907 3.74771C32.08 1.67736 28.777 0.482931 26.1032 0.164416C22.171 -0.313355 18.2389 0.244048 14.3068 1.91625C11.2397 3.19031 8.48726 5.1014 6.04935 7.72914C3.61143 10.2773 1.95994 13.3031 0.937593 16.8068C-1.02847 23.416 0.0725269 31.3789 4.4765 36.7936C8.32998 41.4917 14.3854 43.8806 22.8002 43.9602C26.4964 44.0398 29.6421 43.4824 32.3946 42.288C35.4616 40.9343 37.8995 38.864 39.7083 36.077C40.1801 35.3603 40.652 34.4844 41.0452 33.6085C41.1239 33.5288 41.1239 33.5288 41.0452 33.4492Z" fill="#72BAB7"/>
<path d="M74.3576 31.8566C74.1217 27.4771 74.1217 22.9382 74.2004 18.2401C74.279 15.3735 74.279 12.4272 74.279 9.40134C74.279 9.32172 74.2003 9.32172 74.1217 9.32172C71.3692 9.32172 68.6167 9.95874 65.7856 11.1532C65.707 11.1532 65.707 11.2328 65.707 11.3124C65.707 17.205 65.707 20.9475 65.6283 22.6197C65.5497 25.566 65.3138 27.6363 64.9205 28.8307C64.37 30.7418 63.1118 32.2548 61.303 33.2899C59.4942 34.3251 57.8427 34.7233 56.3485 34.3251C54.3825 33.6881 53.5174 32.1751 53.2815 29.9455C53.0455 28.1141 53.0455 27.7956 53.0455 26.1234C52.9669 22.3808 52.9669 19.6734 53.0455 18.1605C53.0455 16.8864 53.1242 14.6568 53.1242 13.4624C52.9669 12.4272 52.9669 10.5161 52.9669 9.40134C52.9669 9.32172 52.9669 9.32172 52.8883 9.32172C49.9785 9.32172 47.0687 9.95874 44.2376 11.1532C44.159 11.1532 44.159 11.2328 44.159 11.3124C44.159 12.0291 44.0803 15.2939 44.0803 16.6476C44.159 17.5235 44.159 18.6383 44.0803 19.8327C44.0017 23.8938 43.923 26.203 44.0017 26.7604C44.2376 30.2641 44.3162 31.8566 44.9454 35.0418C45.6532 38.2269 46.9901 40.6158 49.1921 42.2084C50.9222 43.562 53.2028 44.1194 55.9553 43.8806C58.1573 43.6417 60.1234 43.0046 61.9321 41.8102C63.3477 40.775 64.606 39.4214 65.707 37.5899C65.6283 38.1473 65.6283 38.6251 65.6283 39.0232C65.6283 39.9788 65.6283 41.3324 65.707 43.0046C65.707 43.0843 65.7856 43.1639 65.8643 43.1639H74.4363C74.5149 43.1639 74.5936 43.0843 74.5936 43.0046C74.5936 38.2269 74.5149 34.4844 74.3576 31.8566Z" fill="#72BAB7"/>
<path d="M106.427 22.3808C106.348 21.6642 106.348 21.0271 106.348 20.3901C106.348 19.8327 106.348 19.1957 106.427 18.5586C106.505 15.9309 106.505 14.0994 106.505 12.905C106.505 11.7902 106.505 10.6754 106.427 9.48097C106.427 9.40134 106.427 9.40134 106.348 9.40134C103.753 9.40134 101.865 9.5606 100.528 9.79949C99.3487 10.0384 98.405 10.4365 97.6972 11.0735C97.5399 11.1532 97.4613 11.2328 97.4613 11.4717C97.3827 11.4717 97.3827 11.7106 97.3827 12.1883C97.3827 12.5069 97.3827 12.7457 97.4613 12.905C97.5399 13.3031 97.5399 13.8605 97.5399 14.7365C97.6186 15.5328 97.6186 16.1698 97.6186 16.6476C97.6186 17.205 97.6186 18.2401 97.5399 19.6734V22.0623H96.5962C92.5068 22.2216 89.2038 22.2216 86.7659 22.1419C86.6873 19.4346 86.6873 17.3642 86.7659 15.8513C86.7659 15.2142 86.7659 14.1791 86.6873 12.6661C86.6086 11.1532 86.6086 10.0384 86.6873 9.40134C86.6873 9.32172 86.6086 9.32172 86.53 9.32172C84.8785 9.32172 83.1484 9.5606 81.261 9.95874C79.5308 10.3569 78.2726 10.755 77.4861 11.1532V11.2328L77.4075 11.3124C77.4861 12.1087 77.5648 14.0198 77.6434 17.1253C77.8007 20.2308 77.8793 22.5401 77.8793 24.2123C77.8007 26.5215 77.8007 28.7511 77.8793 30.9011C78.0366 33.927 78.0366 36.1566 77.958 37.6695C77.8793 39.4214 77.8007 41.1732 77.5648 43.0046C77.5648 43.0843 77.6434 43.1639 77.7221 43.1639H86.6086C86.6873 43.1639 86.6873 43.0843 86.7659 43.0046C86.8446 42.4472 86.8446 41.3324 86.7659 39.6602C86.6873 37.988 86.6086 36.7936 86.6086 36.2362C86.6873 35.5196 86.6873 34.1659 86.7659 32.2548C86.8446 31.6974 86.8446 31.14 86.8446 30.5826C88.1815 30.5826 89.2825 30.5826 90.3048 30.6622C90.7767 30.6622 93.2146 30.6622 97.5399 30.7418V30.9011C97.6972 33.927 97.6972 36.1566 97.6186 37.6695C97.5399 39.4214 97.4613 41.1732 97.2254 43.0046C97.2254 43.0843 97.304 43.1639 97.3827 43.1639H106.269C106.348 43.1639 106.348 43.0843 106.427 43.0046C106.505 42.4472 106.427 41.3324 106.348 39.6602V39.4214L106.427 37.6695C106.505 36.9529 106.505 35.8381 106.427 34.2455V32.2548C106.505 30.3437 106.584 28.8307 106.584 27.7956C106.584 26.9197 106.505 25.1678 106.427 22.3808Z" fill="#72BAB7"/>
<path d="M120.285 19.6734C121.308 19.2753 122.487 18.9568 123.824 18.7179C125.476 18.479 127.049 18.479 128.621 18.7179L128.779 23.0178C127.206 23.0975 125.161 23.5752 122.566 24.3715C121.386 24.7697 120.521 24.8493 119.971 24.6901C119.578 24.6104 119.263 24.4512 119.027 24.1326C118.713 23.8141 118.477 23.4956 118.398 23.0975C118.241 22.6993 118.162 22.3012 118.241 21.903C118.319 21.0271 118.948 20.2308 120.285 19.6734ZM137.665 22.3808C137.587 19.5938 137.587 17.3642 137.665 15.8513C137.665 15.2142 137.587 14.1791 137.508 12.6661C137.429 11.1532 137.508 10.0384 137.587 9.40134C137.587 9.32172 137.508 9.32172 137.429 9.32172C136.879 9.32172 134.913 9.40134 131.531 9.5606L129.644 9.71986L127.914 9.79949C126.734 9.87912 125.869 9.87912 125.397 9.87912C123.431 9.95874 121.701 10.118 120.049 10.5161C118.398 10.9143 116.825 11.5513 115.252 12.5865C113.601 13.6217 112.421 14.8957 111.556 16.4087C110.298 18.6383 109.905 21.1864 110.298 24.1326C110.612 26.4419 111.556 28.2733 113.208 29.5474C114.151 30.2641 115.174 30.9011 116.196 31.2992L115.016 33.3696L113.522 35.5992C112.736 36.714 112.185 37.5899 111.949 38.2269L110.612 40.5362C110.062 41.4917 109.669 42.288 109.433 42.925V43.0843H109.511V43.1639H118.713L118.87 43.0843C118.948 42.8454 119.106 42.5269 119.499 41.9695L120.285 40.6954L121.544 38.2269C121.622 37.988 122.094 37.2714 122.881 35.9973L124.689 32.9714C124.847 32.7325 125.083 32.3344 125.319 31.777C126.341 31.6177 127.363 31.3789 128.307 31.0603L128.779 30.9011C128.936 33.927 128.936 36.1566 128.857 37.6695C128.779 39.4214 128.7 41.1732 128.464 43.0046C128.464 43.0843 128.543 43.1639 128.621 43.1639H137.508C137.587 43.1639 137.587 43.0843 137.665 43.0046C137.744 42.4472 137.665 41.3324 137.587 39.6602C137.508 37.988 137.508 36.7936 137.508 36.2362C137.587 35.5196 137.587 34.1659 137.665 32.2548C137.744 30.3437 137.823 28.8307 137.823 27.7956C137.823 26.9197 137.744 25.1678 137.665 22.3808Z" fill="#72BAB7"/>
<path d="M158.227 33.2103C157.205 33.6085 156.025 33.927 154.688 34.1659C153.116 34.4047 151.543 34.4047 149.97 34.2455C150.048 33.5288 150.048 32.8122 150.048 32.0159C150.127 31.2992 150.127 30.5826 150.127 29.8659C151.621 29.7067 153.587 29.2289 155.947 28.5122C157.126 28.1141 157.991 28.0345 158.542 28.1937C158.935 28.2733 159.25 28.4326 159.486 28.7511C159.8 29.0696 160.036 29.3881 160.115 29.7863C160.272 30.1844 160.351 30.5826 160.272 30.9807C160.193 31.8566 159.564 32.6529 158.227 33.2103ZM152.88 15.7716C153.823 15.5328 154.61 15.6124 155.239 16.0105C156.183 16.5679 156.654 17.3642 156.576 18.5586C156.576 19.4346 156.025 20.1512 154.846 20.7086C153.823 21.266 152.801 21.5845 151.779 21.8234C151.228 21.903 150.599 21.9827 150.048 21.9827C149.97 19.6734 149.891 17.842 149.97 16.4087L150.442 16.329H150.756L151.936 16.0902C152.486 15.9309 152.801 15.8513 152.88 15.7716ZM165.305 23.3364L164.125 22.5401V22.3808C165.069 17.2846 164.597 13.542 162.789 11.2328C161.845 9.95874 160.351 8.92357 158.306 8.20691C156.733 7.64951 155.003 7.64951 153.116 8.04766C153.037 8.04766 152.88 8.12728 152.644 8.20691C152.565 8.20691 151.228 8.4458 148.79 8.92357L146.116 9.40134C145.251 9.5606 144.701 9.64023 144.544 9.71986C142.813 10.118 141.555 10.5161 140.769 10.9143V10.9939L140.69 11.0735C140.769 11.8698 140.847 13.7809 140.926 16.8864C141.083 19.992 141.162 22.3012 141.162 23.9734C141.083 26.2826 141.083 28.5122 141.162 30.6622C141.319 33.6085 141.319 35.9177 141.241 37.4306C141.162 39.1825 141.083 40.9343 140.847 42.7658C140.847 42.8454 140.926 42.925 141.005 42.925H149.419C150.599 43.0046 151.857 43.0046 153.116 43.0046C155.082 42.925 156.812 42.7658 158.463 42.3676C160.115 41.9695 161.688 41.3324 163.26 40.2973C164.912 39.2621 166.092 37.988 166.957 36.4751C168.215 34.2455 168.608 31.6974 168.215 28.7511C167.9 26.4419 166.957 24.6104 165.305 23.3364Z" fill="#72BAB7"/>
<path d="M202.075 31.8566C201.839 27.4771 201.839 22.9382 201.917 18.2401C201.996 15.3735 201.996 12.4272 201.996 9.40134C201.996 9.32172 201.917 9.32172 201.839 9.32172C199.086 9.32172 196.334 9.95874 193.503 11.1532C193.424 11.1532 193.424 11.2328 193.424 11.3124C193.424 17.205 193.424 20.9475 193.345 22.6197C193.267 25.566 193.031 27.6363 192.638 28.8307C192.087 30.7418 190.829 32.2548 189.02 33.2899C187.211 34.3251 185.56 34.7233 184.066 34.3251C182.1 33.6881 181.234 32.1751 180.999 29.9455C180.763 28.1141 180.763 27.7956 180.763 26.1234C180.684 22.3808 180.684 19.6734 180.763 18.1605C180.763 16.8864 180.841 14.6568 180.841 13.4624C180.684 12.4272 180.684 10.5161 180.684 9.40134C180.684 9.32172 180.684 9.32172 180.605 9.32172C177.696 9.32172 174.786 9.95874 171.955 11.1532C171.876 11.1532 171.876 11.2328 171.876 11.3124C171.876 12.0291 171.797 15.2939 171.797 16.6476C171.876 17.5235 171.876 18.6383 171.797 19.8327C171.719 23.8938 171.64 26.203 171.719 26.7604C171.955 30.2641 172.033 31.8566 172.662 35.0418C173.37 38.2269 174.707 40.6158 176.909 42.2084C178.639 43.562 180.92 44.1194 183.672 43.8806C185.874 43.6417 187.84 43.0046 189.649 41.8102C191.065 40.775 192.323 39.4214 193.424 37.5899C193.345 38.1473 193.345 38.6251 193.345 39.0232C193.345 39.9788 193.345 41.3324 193.424 43.0046C193.424 43.0843 193.503 43.1639 193.581 43.1639H202.153C202.232 43.1639 202.311 43.0843 202.311 43.0046C202.311 38.2269 202.232 34.4844 202.075 31.8566Z" fill="#72BAB7"/>
<path d="M234.144 22.3808C234.065 21.6642 234.065 21.0271 234.065 20.3901C234.065 19.8327 234.065 19.1957 234.144 18.5586C234.222 15.9309 234.222 14.0994 234.222 12.905C234.222 11.7902 234.222 10.6754 234.144 9.48097C234.144 9.40134 234.144 9.40134 234.065 9.40134C231.47 9.40134 229.582 9.5606 228.245 9.79949C227.066 10.0384 226.122 10.4365 225.414 11.0735C225.257 11.1532 225.178 11.2328 225.178 11.4717C225.1 11.4717 225.1 11.7106 225.1 12.1883C225.1 12.5069 225.1 12.7457 225.178 12.905C225.257 13.3031 225.257 13.8605 225.257 14.7365C225.336 15.5328 225.336 16.1698 225.336 16.6476C225.336 17.205 225.336 18.2401 225.257 19.6734V22.0623H224.313C220.224 22.2216 216.921 22.2216 214.483 22.1419C214.404 19.4346 214.404 17.3642 214.483 15.8513C214.483 15.2142 214.483 14.1791 214.404 12.6661C214.326 11.1532 214.326 10.0384 214.404 9.40134C214.404 9.32172 214.326 9.32172 214.247 9.32172C212.596 9.32172 210.865 9.5606 208.978 9.95874C207.248 10.3569 205.99 10.755 205.203 11.1532V11.2328L205.125 11.3124C205.203 12.1087 205.282 14.0198 205.361 17.1253C205.518 20.2308 205.596 22.5401 205.596 24.2123C205.518 26.5215 205.518 28.7511 205.596 30.9011C205.754 33.927 205.754 36.1566 205.675 37.6695C205.596 39.4214 205.518 41.1732 205.282 43.0046C205.282 43.0843 205.36 43.1639 205.439 43.1639H214.326C214.404 43.1639 214.404 43.0843 214.483 43.0046C214.562 42.4472 214.562 41.3324 214.483 39.6602C214.404 37.988 214.326 36.7936 214.326 36.2362C214.404 35.5196 214.404 34.1659 214.483 32.2548C214.562 31.6974 214.562 31.14 214.562 30.5826C215.899 30.5826 217 30.5826 218.022 30.6622C218.494 30.6622 220.932 30.6622 225.257 30.7418V30.9011C225.414 33.927 225.414 36.1566 225.336 37.6695C225.257 39.4214 225.178 41.1732 224.942 43.0046C224.942 43.0843 225.021 43.1639 225.1 43.1639H233.986C234.065 43.1639 234.065 43.0843 234.144 43.0046C234.222 42.4472 234.144 41.3324 234.065 39.6602V39.4214L234.144 37.6695C234.222 36.9529 234.222 35.8381 234.144 34.2455V32.2548C234.222 30.3437 234.301 28.8307 234.301 27.7956C234.301 26.9197 234.222 25.1678 234.144 22.3808Z" fill="#72BAB7"/>
<path d="M259.642 9.95874C256.417 8.92357 252.878 9.08283 249.103 10.5958C245.722 11.9495 242.969 14.0994 240.925 17.0457C236.757 23.1771 235.813 30.6622 239.509 37.2714C241.239 40.138 243.834 42.1287 247.295 43.1639C250.755 44.2787 254.058 44.2787 257.125 43.1639C263.416 41.0139 267.899 34.8029 268.843 27.8752C268.921 26.9993 269 26.1234 269 25.2474C268.843 19.2753 265.697 11.9495 259.642 9.95874ZM259.642 26.9993C258.619 31.2196 256.732 34.0066 253.901 35.3603C252.013 36.2362 250.362 36.3158 249.025 35.4399C248.002 34.8825 247.216 33.6881 246.744 31.9363C245.8 28.5919 246.194 25.2475 248.002 21.9827C249.811 18.7975 252.642 16.4883 255.788 17.3642C259.484 18.3994 260.507 22.8586 259.642 26.9993Z" fill="#72BAB7"/>
</svg>
