<svg width="58" height="58" viewBox="0 0 58 58" fill="none" xmlns="http://www.w3.org/2000/svg">
<path d="M57.9873 53.9073L54.5892 35.1709C54.5054 34.7082 54.0623 34.4011 53.5997 34.4851C53.1371 34.5689 52.8302 35.0121 52.914 35.4746L54.3508 43.3967L43.2739 30.5302L50.724 28.8675L51.8271 29.4816L52.306 32.1228C52.3899 32.5855 52.8329 32.8924 53.2955 32.8086C53.7582 32.7248 54.0651 32.2817 53.9813 31.8191L53.4304 28.7816C53.3849 28.5308 53.2295 28.3137 53.0069 28.1897L51.2688 27.2222C51.2688 27.2222 51.2688 27.2222 51.2687 27.2222L45.776 24.1646H45.7759L41.5378 21.8054C41.5377 21.8054 41.5376 21.8053 41.5376 21.8053C41.5372 21.8052 41.537 21.805 41.5367 21.8048C41.5039 21.7866 41.4704 21.771 41.4361 21.7575C41.4253 21.7533 41.4143 21.7505 41.4033 21.7468C41.3794 21.7384 41.3554 21.7303 41.3311 21.7241C41.3172 21.7206 41.3033 21.7186 41.2893 21.7158C41.2674 21.7115 41.2454 21.7072 41.2233 21.7046C41.2084 21.7028 41.1935 21.7022 41.1785 21.7013C41.1571 21.7 41.1356 21.6989 41.1142 21.6991C41.0989 21.6992 41.0838 21.7003 41.0685 21.7012C41.0474 21.7026 41.0263 21.7045 41.0053 21.7075C40.99 21.7096 40.9747 21.7123 40.9595 21.7154C40.9389 21.7195 40.9185 21.7242 40.8981 21.7298C40.8828 21.734 40.8676 21.7385 40.8526 21.7435C40.8328 21.7502 40.8134 21.7578 40.794 21.7659C40.779 21.7723 40.7642 21.7785 40.7494 21.7857C40.7429 21.7889 40.7362 21.7911 40.7299 21.7943L38.7851 22.8081C40.2319 20.1103 40.9628 17.4975 40.9628 14.9978C40.9628 8.43151 35.6207 3.08942 29.0544 3.08942C22.488 3.08942 17.1466 8.43151 17.1466 14.9978C17.1466 17.5217 17.8911 20.1611 19.3662 22.8867L17.2707 21.7943C17.2642 21.7909 17.2573 21.7887 17.2507 21.7855C17.2365 21.7785 17.2217 21.7724 17.2072 21.7663C17.1876 21.758 17.1678 21.7503 17.1478 21.7435C17.1329 21.7385 17.1178 21.7341 17.1028 21.7299C17.0824 21.7243 17.0619 21.7195 17.0413 21.7154C17.026 21.7123 17.0106 21.7096 16.9952 21.7075C16.9744 21.7045 16.9536 21.7027 16.9327 21.7013C16.9171 21.7003 16.9015 21.6993 16.886 21.6991C16.8651 21.6989 16.8444 21.7 16.8235 21.7012C16.8079 21.7022 16.7923 21.7028 16.7766 21.7047C16.7555 21.7072 16.7345 21.7114 16.7136 21.7155C16.6987 21.7184 16.6838 21.7206 16.669 21.7243C16.6458 21.7302 16.623 21.738 16.6003 21.7459C16.5884 21.7499 16.5763 21.7531 16.5644 21.7578C16.5301 21.7712 16.4967 21.7869 16.4641 21.8049C16.4638 21.805 16.4635 21.8052 16.4632 21.8054C16.4631 21.8054 16.4631 21.8056 16.463 21.8056L4.99408 28.1897C4.77137 28.3137 4.61595 28.5308 4.57064 28.7816L1.34021 46.5933C1.25638 47.0559 1.56338 47.499 2.02601 47.5828C2.48877 47.667 2.93169 47.3597 3.01552 46.897L3.98464 41.5535L15.0024 35.7292L14.1164 47.1699L1.97753 52.6204L2.40471 50.2642C2.48854 49.8017 2.18166 49.3586 1.71902 49.2747C1.25672 49.1911 0.813456 49.4979 0.729515 49.9605L0.0136936 53.9074C-0.0427202 54.2183 0.0778105 54.5349 0.326575 54.7296C0.479164 54.849 0.664379 54.9105 0.851292 54.9105C0.969444 54.9105 1.08828 54.8859 1.19986 54.8359L14.9259 48.6728L28.6461 54.8333C28.6464 54.8334 28.6468 54.8336 28.6471 54.8337L28.6518 54.8358C28.6595 54.8393 28.6675 54.8416 28.6754 54.8449C28.688 54.8501 28.7007 54.855 28.7136 54.8597C28.726 54.8641 28.7384 54.8685 28.7511 54.8723C28.7593 54.8748 28.7674 54.877 28.7756 54.8793C28.7862 54.8822 28.7968 54.885 28.8076 54.8875C28.8253 54.8916 28.8432 54.8948 28.861 54.8977C28.8695 54.8991 28.8779 54.9011 28.8865 54.9023C28.8923 54.903 28.898 54.9038 28.9038 54.9045C28.9322 54.9078 28.961 54.9095 28.9896 54.9098C28.9932 54.9098 28.9968 54.9105 29.0004 54.9105C29.0023 54.9105 29.0041 54.9102 29.0059 54.9102C29.0403 54.91 29.0745 54.9071 29.1089 54.9027C29.113 54.9021 29.1173 54.9024 29.1217 54.9017C29.1281 54.9008 29.1345 54.8986 29.141 54.8976C29.1676 54.8932 29.1943 54.8874 29.2205 54.8803C29.2278 54.8784 29.2352 54.8772 29.2424 54.8752C29.2432 54.875 29.2439 54.875 29.2447 54.8747C29.2471 54.874 29.2492 54.8728 29.2516 54.872C29.2847 54.8618 29.3172 54.8501 29.3492 54.8358L43.0748 48.6727L56.8007 54.8356C56.8139 54.8415 56.8275 54.846 56.8411 54.8512C56.8545 54.8564 56.8676 54.8622 56.8813 54.8667C56.8991 54.8726 56.9174 54.877 56.9355 54.8816C56.9467 54.8846 56.9576 54.8882 56.969 54.8906C56.9909 54.8953 57.013 54.8984 57.0351 54.9015C57.043 54.9025 57.0507 54.9043 57.0586 54.9052C57.0889 54.9085 57.1191 54.9102 57.1494 54.9102H57.1495C57.1496 54.9102 57.1497 54.9102 57.1497 54.9102C57.1911 54.9102 57.2324 54.906 57.2736 54.9C57.2831 54.8986 57.2927 54.8972 57.3022 54.8953C57.3428 54.888 57.3832 54.8785 57.423 54.8649C57.4255 54.864 57.428 54.8627 57.4305 54.8619C57.4568 54.8527 57.483 54.8427 57.5086 54.8305C57.5161 54.827 57.5225 54.8221 57.5299 54.8183C57.5513 54.8076 57.5719 54.7952 57.5925 54.7824C57.6131 54.7698 57.6336 54.7571 57.653 54.7428C57.6597 54.7378 57.6672 54.7343 57.6739 54.7292C57.6888 54.7175 57.7018 54.704 57.7159 54.6913C57.7271 54.6812 57.7388 54.6717 57.7495 54.6612C57.7753 54.6357 57.7989 54.6085 57.8208 54.5803C57.8249 54.575 57.8297 54.5703 57.8338 54.5649C57.8592 54.5305 57.8816 54.4943 57.9014 54.4567C57.907 54.4462 57.9112 54.435 57.9164 54.4241C57.9295 54.3965 57.9416 54.3686 57.9518 54.3397C57.9569 54.3252 57.961 54.3105 57.9653 54.2955C57.973 54.269 57.9795 54.2422 57.9846 54.2149C57.9875 54.1992 57.9902 54.1835 57.9923 54.1676C57.996 54.1387 57.9977 54.1094 57.9985 54.0801C57.9989 54.0661 58 54.0523 57.9996 54.0381C57.999 53.9949 57.9953 53.951 57.9873 53.9073ZM43.0237 24.5811L42.151 24.7852L42.0951 24.0642L43.0237 24.5811ZM41.1666 34.1222L37.6114 31.3463C37.3653 31.1543 37.0341 31.1121 36.7477 31.2366L29.8553 34.2365V33.3037C30.3702 32.8842 31.5403 31.8953 32.9427 30.476L40.6228 27.102L41.1666 34.1222ZM40.3747 23.8998L40.4835 25.3036L35.6857 27.4114C36.1621 26.8208 36.6062 26.2335 37.0185 25.6493L40.3747 23.8998ZM17.6263 23.8998L21.155 25.7392C21.6775 26.4741 22.2499 27.2143 22.8738 27.9593C23.4192 28.6107 23.9628 29.2159 24.4859 29.77L17.2517 28.7348L17.6263 23.8998ZM15.1579 33.7212L4.37081 39.4233L4.89621 36.5263L4.90969 36.4516L15.3734 30.937L15.1579 33.7212ZM15.529 28.9306L5.29575 34.3238L6.1739 29.4817L15.9059 24.0643L15.6613 27.2227L15.529 28.9306ZM15.821 47.2083L16.627 36.8013L26.6829 52.0854L15.821 47.2083ZM28.1491 43.9273L22.905 35.6625L28.1491 36.2904V43.9273ZM28.1491 34.5756L21.3263 33.7587C21.0002 33.7203 20.6802 33.872 20.5049 34.1502C20.3297 34.4283 20.3303 34.7824 20.5064 35.0602L28.1491 47.1051V51.2165L16.8416 34.0301L17.12 30.436L26.5125 31.7799C27.2208 32.4373 27.795 32.9254 28.149 33.2169V34.5756H28.1491ZM29.055 31.753C26.9053 29.9399 18.8492 22.6346 18.8492 14.9979C18.8491 9.37038 23.4275 4.79203 29.055 4.79203C34.6826 4.79203 39.261 9.37038 39.261 14.9979C39.261 22.6346 31.2048 29.94 29.055 31.753ZM29.8517 52.7438V48.9651L32.3967 51.601L29.8517 52.7438ZM34.0477 50.8597L29.8517 46.5138V36.0947L36.9626 32.9999L41.3444 36.4213L42.1799 47.2083L34.0477 50.8597ZM42.2839 26.5024L45.2354 25.8122L47.3286 26.9774L48.4868 27.6222L42.4744 28.964L42.2839 26.5024ZM43.8846 47.1699L43.22 38.5889L54.1561 51.782L43.8846 47.1699ZM42.9922 35.6462L42.7609 32.659L42.7511 32.5325L54.9504 46.7028L55.7326 51.0157L42.9922 35.6462Z" fill="#72BAB7"/>
<path d="M29.0548 9.73645C28.5847 9.73645 28.2035 10.1175 28.2035 10.5878C28.2035 11.058 28.5847 11.4391 29.0548 11.4391C31.0172 11.4391 32.6136 13.0355 32.6136 14.9979C32.6136 16.9601 31.0172 18.5567 29.0548 18.5567C27.0924 18.5567 25.496 16.9603 25.496 14.9979C25.496 14.0591 25.8582 13.1734 26.5162 12.5037C26.8457 12.1684 26.8409 11.6294 26.5055 11.3C26.1701 10.9704 25.6311 10.9751 25.3017 11.3106C24.329 12.3006 23.7935 13.6101 23.7935 14.9979C23.7935 17.899 26.1537 20.2593 29.0549 20.2593C31.9561 20.2593 34.3163 17.899 34.3163 14.9979C34.3162 12.0967 31.956 9.73645 29.0548 9.73645Z" fill="#72BAB7"/>
</svg>
