<svg width="70" height="88" viewBox="0 0 70 88" fill="none" xmlns="http://www.w3.org/2000/svg">
<path d="M35 87.75C34.6576 87.7469 34.3246 87.6377 34.0469 87.4375C32.6875 86.3906 0.625 61.6562 0.625 34.625C0.625 25.5082 4.24664 16.7648 10.6932 10.3182C17.1398 3.87164 25.8832 0.25 35 0.25C44.1168 0.25 52.8602 3.87164 59.3068 10.3182C65.7534 16.7648 69.375 25.5082 69.375 34.625C69.375 61.6562 37.3125 86.3906 35.9531 87.4375C35.6754 87.6377 35.3424 87.7469 35 87.75ZM35 3.375C26.712 3.375 18.7634 6.6674 12.9029 12.5279C7.0424 18.3884 3.75 26.337 3.75 34.625C3.75 57.6094 29.6719 79.9375 35 84.1875C40.3281 79.9375 66.25 57.5938 66.25 34.625C66.25 26.337 62.9576 18.3884 57.0971 12.5279C51.2366 6.6674 43.288 3.375 35 3.375Z" fill="#72BAB7"/>
<path d="M24.4163 51.0156C24.0853 51.0168 23.7625 50.9128 23.4944 50.7188C23.2749 50.56 23.1005 50.3469 22.9881 50.1004C22.8758 49.8538 22.8296 49.5823 22.8538 49.3125L23.8851 38.375L16.6197 30.2188C16.4391 30.0153 16.3147 29.7683 16.2589 29.5021C16.203 29.2358 16.2176 28.9596 16.3013 28.7008C16.3849 28.4419 16.5347 28.2094 16.7358 28.0262C16.9369 27.843 17.1823 27.7155 17.4478 27.6563L28.1193 25.25L33.6347 15.875C33.771 15.6388 33.9668 15.4425 34.2025 15.3054C34.4382 15.1684 34.7057 15.0954 34.9784 15.0938C35.2495 15.0938 35.516 15.1644 35.7516 15.2986C35.9872 15.4329 36.1838 15.6261 36.3221 15.8594L41.8843 25.2344L52.5558 27.5781C52.8215 27.6347 53.0679 27.7595 53.2707 27.9403C53.4734 28.1212 53.6255 28.3518 53.712 28.6094C53.8049 28.8739 53.8249 29.1585 53.7699 29.4335C53.7149 29.7084 53.587 29.9634 53.3995 30.1719L46.1654 38.375L47.2591 49.3125C47.2862 49.5849 47.2413 49.8595 47.1289 50.1091C47.0165 50.3586 46.8405 50.5742 46.6185 50.7344C46.3965 50.8985 46.1349 51.0009 45.8605 51.0311C45.586 51.0613 45.3085 51.0182 45.0561 50.9062L35.0096 46.5L24.9944 50.8906C24.8104 50.9654 24.6148 51.0077 24.4163 51.0156ZM20.7289 30.1719L26.6818 36.8594C26.8252 37.0198 26.9338 37.208 27.0011 37.4124C27.0683 37.6167 27.0926 37.8327 27.0724 38.0469L26.2287 46.9531L34.4159 43.3594C34.613 43.2733 34.8258 43.2289 35.0409 43.2289C35.2559 43.2289 35.4687 43.2733 35.6658 43.3594L43.8843 46.9219L42.9937 38C42.9714 37.7869 42.9932 37.5716 43.0577 37.3673C43.1222 37.163 43.2281 36.9742 43.3686 36.8125L49.2903 30.1094L40.5563 28.1875C40.3468 28.1436 40.1485 28.0572 39.9738 27.9336C39.7991 27.8099 39.6517 27.6517 39.5407 27.4688L35.0096 19.7656L30.4785 27.4844C30.3708 27.6686 30.2266 27.8288 30.0546 27.9551C29.8826 28.0814 29.6866 28.1711 29.4786 28.2187L20.7289 30.1719Z" fill="#72BAB7"/>
</svg>
